<svg width="48" height="48" viewBox="0 0 48 48" fill="none" xmlns="http://www.w3.org/2000/svg">
<g id="clarity:devices-solid">
<path id="Vector" d="M42.6673 17.3335H32.0007C31.2934 17.3335 30.6151 17.6144 30.115 18.1145C29.6149 18.6146 29.334 19.2929 29.334 20.0002V40.0002C29.334 40.7074 29.6149 41.3857 30.115 41.8858C30.6151 42.3859 31.2934 42.6668 32.0007 42.6668H42.6673C43.3746 42.6668 44.0528 42.3859 44.5529 41.8858C45.053 41.3857 45.334 40.7074 45.334 40.0002V20.0002C45.334 19.2929 45.053 18.6146 44.5529 18.1145C44.0528 17.6144 43.3746 17.3335 42.6673 17.3335ZM42.6673 20.0002V37.3335H32.0007V20.0002H42.6673Z" fill="#808080"/>
<path id="Vector_2" d="M37.3327 5.3335H5.33268C4.62544 5.3335 3.94716 5.61445 3.44706 6.11454C2.94697 6.61464 2.66602 7.29292 2.66602 8.00016V29.3335C2.66602 30.0407 2.94697 30.719 3.44706 31.2191C3.94716 31.7192 4.62544 32.0002 5.33268 32.0002H15.9993V34.6668H12.426C12.0175 34.6204 11.6069 34.733 11.2792 34.9812C10.9515 35.2295 10.7319 35.5944 10.666 36.0002C10.7319 36.406 10.9515 36.7708 11.2792 37.0191C11.6069 37.2673 12.0175 37.3799 12.426 37.3335H26.5593V36.8402H26.666V29.3335H5.33268V8.00016H37.3327V14.6668H39.9993V8.00016C39.9993 7.29292 39.7184 6.61464 39.2183 6.11454C38.7182 5.61445 38.0399 5.3335 37.3327 5.3335Z" fill="#808080"/>
</g>
</svg>
