<svg width="42" height="30" viewBox="0 0 42 30" fill="none" xmlns="http://www.w3.org/2000/svg">
<path id="Vector" d="M3.81818 5.625C3.81818 4.59375 4.67727 3.75 5.72727 3.75H36.2727C37.3227 3.75 38.1818 2.90625 38.1818 1.875C38.1818 0.84375 37.3227 0 36.2727 0H3.81818C1.71818 0 0 1.6875 0 3.75V26.25C0 28.3125 1.71818 30 3.81818 30H9.54545C10.5955 30 11.4545 29.1562 11.4545 28.125C11.4545 27.0938 10.5955 26.25 9.54545 26.25H5.72727C4.67727 26.25 3.81818 25.4062 3.81818 24.375V5.625ZM21 15H17.1818C16.1318 15 15.2727 15.8438 15.2727 16.875V18.3375C14.1082 19.3687 13.3636 20.8313 13.3636 22.5C13.3636 24.1688 14.1082 25.6313 15.2727 26.6625V28.125C15.2727 29.1562 16.1318 30 17.1818 30H21C22.05 30 22.9091 29.1562 22.9091 28.125V26.6625C24.0736 25.6313 24.8182 24.15 24.8182 22.5C24.8182 20.85 24.0736 19.3687 22.9091 18.3375V16.875C22.9091 15.8438 22.05 15 21 15ZM19.0909 25.3125C17.5064 25.3125 16.2273 24.0563 16.2273 22.5C16.2273 20.9438 17.5064 19.6875 19.0909 19.6875C20.6755 19.6875 21.9545 20.9438 21.9545 22.5C21.9545 24.0563 20.6755 25.3125 19.0909 25.3125ZM40.0909 7.5H28.6364C27.6818 7.5 26.7273 8.4375 26.7273 9.375V28.125C26.7273 29.0625 27.6818 30 28.6364 30H40.0909C41.0455 30 42 29.0625 42 28.125V9.375C42 8.4375 41.0455 7.5 40.0909 7.5ZM38.1818 26.25H30.5455V11.25H38.1818V26.25Z" fill="#808080"/>
</svg>
